<svg xmlns="http://www.w3.org/2000/svg" class="AppStoreCTASvg" viewBox="0 0 144 48" fill="none"><path class="AppStoreCTASvg" d="M132.161 0.000155999H11.4416C11.0015 0.000155999 10.5668 0.000155999 10.1279 0.00255599C9.76053 0.00495598 9.39608 0.011928 9.02517 0.0177959C8.21939 0.0272781 7.4155 0.0981672 6.6205 0.229847C5.82661 0.364394 5.05759 0.618053 4.33945 0.982245C3.62219 1.34952 2.9668 1.82675 2.39708 2.39663C1.82436 2.96491 1.34695 3.62176 0.983217 4.34193C0.618478 5.06067 0.365567 5.83086 0.233219 6.62591C0.0996128 7.41995 0.027718 8.22315 0.0181799 9.0283C0.00704398 9.39622 0.00586798 9.76536 0 10.1333V37.8704C0.00586798 38.243 0.00704398 38.6039 0.0181799 38.9766C0.0277209 39.7817 0.0996157 40.5849 0.233219 41.3789C0.365202 42.1744 0.618128 42.945 0.983217 43.6641C1.34679 44.3819 1.82426 45.0361 2.39708 45.6012C2.96464 46.1736 3.62045 46.6512 4.33945 47.0156C5.05759 47.3808 5.82652 47.636 6.6205 47.7726C7.41564 47.9032 8.21944 47.9741 9.02517 47.9848C9.39608 47.9929 9.76053 47.9976 10.1279 47.9976C10.5668 48 11.0016 48 11.4416 48H132.161C132.593 48 133.031 48 133.462 47.9976C133.828 47.9976 134.203 47.9929 134.568 47.9848C135.373 47.9747 136.175 47.9038 136.968 47.7726C137.765 47.635 138.537 47.3799 139.258 47.0156C139.977 46.651 140.632 46.1734 141.199 45.6012C141.77 45.0339 142.249 44.3802 142.617 43.6641C142.979 42.9445 143.23 42.174 143.36 41.3789C143.493 40.5848 143.568 39.7818 143.582 38.9766C143.587 38.6039 143.587 38.243 143.587 37.8704C143.596 37.4344 143.596 37.0008 143.596 36.5578V11.4435C143.596 11.004 143.596 10.5681 143.587 10.1333C143.587 9.76536 143.587 9.39622 143.582 9.02825C143.568 8.22304 143.493 7.42001 143.36 6.62586C143.229 5.83128 142.979 5.06114 142.617 4.34189C141.876 2.89838 140.701 1.72338 139.258 0.982137C138.537 0.618835 137.765 0.365243 136.968 0.229739C136.175 0.097479 135.373 0.0265652 134.568 0.0176279C134.203 0.011772 133.828 0.00473998 133.462 0.00239999C133.031 0 132.593 0 132.161 0V0.000155999Z" fill="#484F8C"></path><path class="AppStoreCTASvg" d="M10.134 46.95C9.76839 46.95 9.41161 46.9453 9.04886 46.9372C8.2974 46.9274 7.5477 46.8619 6.8059 46.7414C6.11421 46.6223 5.44415 46.4007 4.81782 46.084C4.19723 45.7698 3.63121 45.3579 3.14142 44.864C2.64455 44.376 2.23089 43.8099 1.91682 43.1882C1.59928 42.5626 1.37953 41.8919 1.26522 41.1996C1.14177 40.4557 1.07498 39.7036 1.06542 38.9496C1.05781 38.6965 1.04785 37.8539 1.04785 37.8539V10.1333C1.04785 10.1333 1.05846 9.30363 1.06548 9.05987C1.07463 8.3071 1.14103 7.5561 1.26411 6.8134C1.37864 6.11922 1.59856 5.44662 1.91626 4.81888C2.22918 4.19766 2.64055 3.63116 3.13443 3.14135C3.62775 2.64688 4.19559 2.23286 4.81723 1.91439C5.44212 1.59865 6.11092 1.37862 6.80121 1.26166C7.54544 1.13994 8.29775 1.07414 9.05181 1.06479L10.1346 1.05014H133.456L134.552 1.06538C135.299 1.07426 136.045 1.13948 136.782 1.26049C137.48 1.37891 138.155 1.60048 138.787 1.91791C140.033 2.55972 141.046 3.57513 141.685 4.82181C141.998 5.44522 142.214 6.11233 142.328 6.80051C142.452 7.54931 142.522 8.3062 142.536 9.06516C142.54 9.40499 142.54 9.77003 142.54 10.1333C142.549 10.5833 142.549 11.0116 142.549 11.4435V36.5578C142.549 36.9937 142.549 37.4191 142.54 37.848C142.54 38.2383 142.54 38.5957 142.535 38.9637C142.521 39.7091 142.452 40.4524 142.33 41.1879C142.218 41.8851 141.999 42.561 141.682 43.1918C141.366 43.8067 140.954 44.3679 140.463 44.8547C139.973 45.3512 139.406 45.7655 138.784 46.0817C138.154 46.4009 137.479 46.6233 136.782 46.7414C136.04 46.8626 135.291 46.928 134.539 46.9372C134.188 46.9453 133.82 46.95 133.462 46.95L132.162 46.9524L10.134 46.95Z" fill="#484F8C"></path><path class="AppStoreCTASvg" fill-rule="evenodd" clip-rule="evenodd" d="M89.6149 34.8914C87.6532 34.8914 86.2176 33.9211 86.0524 32.4434L83.7695 32.4433C83.9137 35.1386 86.1449 36.8437 89.4496 36.8437C92.9816 36.8437 95.2023 35.0976 95.2023 32.3097C95.2023 30.1301 93.932 28.9019 90.8746 28.1789L89.2328 27.7758C87.3121 27.3012 86.527 26.6813 86.527 25.6278C86.527 24.3059 87.7562 23.3977 89.5527 23.3977C91.3492 23.3977 92.5785 24.2953 92.7133 25.7824H94.9645C94.8918 23.2114 92.7332 21.4453 89.5844 21.4453C86.4028 21.4453 84.1621 23.2114 84.1621 25.7824C84.1621 27.859 85.4325 29.1387 88.1688 29.7996L90.1 30.2649C92.0313 30.7395 92.8469 31.432 92.8469 32.5887C92.8469 33.9211 91.4945 34.8914 89.6149 34.8914ZM50.7625 32.5676H45.0824L43.7183 36.5954H41.3125L46.6926 21.6938H49.1922L54.5722 36.5954H52.1253L50.7625 32.5676ZM45.6719 30.7091H50.1743L47.9547 24.1724H47.8926L45.6719 30.7091ZM61.6575 36.709C64.3844 36.709 66.1915 34.5399 66.1915 31.1637C66.1915 27.7969 64.3738 25.6173 61.6165 25.6173C60.1976 25.5715 58.8685 26.3095 58.1571 27.538H58.1161V25.7309H55.9575V40.1895H58.1875V34.8082H58.2391C58.9202 36.0445 60.2479 36.7828 61.6575 36.709ZM63.9008 31.1638C63.9008 28.9642 62.764 27.5181 61.0297 27.5181C59.3258 27.5181 58.1797 28.9947 58.1797 31.1638C58.1797 33.3528 59.3258 34.8189 61.0297 34.8189C62.7641 34.8189 63.9008 33.3833 63.9008 31.1638ZM73.6141 36.709C76.341 36.709 78.148 34.5399 78.148 31.1637C78.148 27.7969 76.3305 25.6173 73.573 25.6173C72.1542 25.5715 70.825 26.3095 70.1137 27.538H70.0726V25.7309H67.9141V40.1895H70.1441V34.8082H70.1957C70.8768 36.0445 72.2045 36.7828 73.6141 36.709ZM75.8569 31.1637C75.8569 28.9641 74.7202 27.518 72.9858 27.518C71.2819 27.518 70.1359 28.9946 70.1359 31.1637C70.1359 33.3528 71.2819 34.8188 72.9858 34.8188C74.7202 34.8188 75.8569 33.3833 75.8569 31.1637ZM100.015 23.1598V25.7309H102.081V27.4969H100.015V33.4864C100.015 34.4168 100.429 34.8504 101.337 34.8504C101.582 34.8462 101.827 34.8289 102.071 34.7988V36.5543C101.662 36.6306 101.247 36.6652 100.832 36.6574C98.6324 36.6574 97.7746 35.8313 97.7746 33.7242V27.4969H96.1949V25.7309H97.7745V23.1598H100.015ZM108.431 25.5974C105.291 25.5974 103.278 27.7454 103.278 31.1637C103.278 34.5915 105.271 36.7301 108.431 36.7301C111.591 36.7301 113.584 34.5915 113.584 31.1637C113.584 27.7453 111.58 25.5974 108.431 25.5974ZM111.312 31.1637C111.312 28.8188 110.237 27.4348 108.43 27.4348C106.623 27.4348 105.55 28.8294 105.55 31.1637C105.55 33.518 106.623 34.8915 108.43 34.8915C110.237 34.8915 111.312 33.518 111.312 31.1637ZM117.55 25.7309H115.423L115.423 36.5953H117.653V30.1512C117.579 29.4993 117.793 28.8474 118.24 28.3669C118.687 27.8863 119.321 27.625 119.977 27.6516C120.316 27.6417 120.654 27.6872 120.979 27.7864V25.7005C120.728 25.6443 120.472 25.6164 120.215 25.6172C118.989 25.5704 117.898 26.3897 117.601 27.5801H117.55V25.7309ZM131.261 33.4043C130.961 35.3766 129.04 36.7301 126.583 36.7301C123.422 36.7301 121.461 34.6125 121.461 31.2153C121.461 27.8075 123.433 25.5973 126.489 25.5973C129.495 25.5973 131.385 27.6622 131.385 30.9563V31.7204H123.712V31.8551C123.64 32.664 123.919 33.4646 124.479 34.0534C125.038 34.6422 125.823 34.9623 126.634 34.9325C127.717 35.0339 128.737 34.4124 129.143 33.4043L131.261 33.4043ZM129.154 30.1618H123.722C123.72 29.4283 124.012 28.7244 124.531 28.2066C125.051 27.6888 125.756 27.4 126.489 27.4044C127.217 27.3887 127.918 27.6774 128.424 28.2008C128.93 28.7243 129.194 29.435 129.154 30.1618Z" fill="white"></path><path class="AppStoreCTASvg" fill-rule="evenodd" clip-rule="evenodd" d="M70.9102 10.1245H71.9766V17.6374H70.9102V10.1245ZM47.9177 11.4588C47.265 10.7696 46.3377 10.4094 45.391 10.4773H42.8047V17.6375H45.391C47.5238 17.6375 48.7601 16.3226 48.7601 14.0351C48.8795 13.0935 48.5703 12.1479 47.9177 11.4588ZM45.268 16.625H43.918V11.4893H45.268C45.941 11.452 46.5954 11.7173 47.0524 12.2128C47.5093 12.7083 47.7209 13.3821 47.6293 14.0499C47.7281 14.7204 47.5195 15.3998 47.0614 15.8993C46.6033 16.3989 45.9445 16.6655 45.268 16.625ZM50.016 14.9333C49.9233 13.9648 50.3878 13.0274 51.2145 12.5144C52.0412 12.0014 53.0873 12.0014 53.914 12.5144C54.7407 13.0274 55.2051 13.9648 55.1125 14.9333C55.2069 15.9029 54.7429 16.842 53.9154 17.3562C53.088 17.8703 52.0405 17.8703 51.213 17.3562C50.3856 16.842 49.9216 15.9029 50.016 14.9333ZM52.5665 13.0771C53.4899 13.0771 54.016 13.762 54.016 14.9333H54.0161C54.0161 16.1093 53.4899 16.7936 52.5665 16.7937C51.6395 16.7937 51.1181 16.114 51.1181 14.9333C51.1181 13.762 51.6395 13.0771 52.5665 13.0771ZM61.8875 17.6374H60.7812L59.6644 13.6577H59.5801L58.468 17.6374H57.3723L55.8828 12.2339H56.9645L57.9324 16.3571H58.0121L59.123 12.2339H60.1461L61.257 16.3571H61.3414L62.3047 12.2339H63.3711L61.8875 17.6374ZM65.6516 12.2337H64.625L64.625 17.6372H65.6914V14.476C65.6531 14.1164 65.7738 13.7581 66.0218 13.4949C66.2698 13.2317 66.6204 13.0899 66.9816 13.1067C67.7703 13.1067 68.1476 13.5386 68.1476 14.4069V17.6371H69.214V14.1391C69.2922 13.6108 69.1259 13.0756 68.7621 12.6846C68.3982 12.2936 67.8763 12.0893 67.3437 12.1294C66.6559 12.0735 66.0084 12.4601 65.7313 13.0921H65.6516V12.2337ZM74.6591 12.5143C73.8323 13.0273 73.3678 13.9647 73.4604 14.9333C73.3661 15.9029 73.8302 16.842 74.6577 17.3561C75.4852 17.8702 76.5327 17.8702 77.3602 17.3561C78.1877 16.842 78.6518 15.9029 78.5575 14.9333C78.6501 13.9647 78.1856 13.0273 77.3588 12.5143C76.532 12.0013 75.4859 12.0013 74.6591 12.5143ZM77.4605 14.9333C77.4605 13.762 76.9343 13.0771 76.0109 13.0771C75.0839 13.0771 74.5625 13.762 74.5625 14.9333C74.5625 16.114 75.084 16.7937 76.0109 16.7937C76.9343 16.7936 77.4605 16.1093 77.4605 14.9333ZM81.6903 14.4962C80.4048 14.5759 79.6806 15.1366 79.6806 16.1093C79.6824 16.5705 79.8792 17.0094 80.2224 17.3175C80.5655 17.6256 81.023 17.7741 81.4817 17.7264C82.1361 17.7567 82.7561 17.4326 83.1048 16.878H83.1891V17.6374H84.2157V13.9454C84.2157 12.804 83.4516 12.1296 82.097 12.1296C80.8712 12.1296 79.9981 12.7249 79.8892 13.653H80.9216C81.0399 13.271 81.4524 13.0525 82.0477 13.0525C82.7766 13.0525 83.154 13.3747 83.154 13.9454V14.4118L81.6903 14.4962ZM83.1551 15.6476V15.1958L81.8355 15.2802C81.0914 15.33 80.7539 15.5831 80.7539 16.0595C80.7539 16.5458 81.1758 16.8288 81.7559 16.8288C82.0993 16.8636 82.4422 16.7575 82.7059 16.5348C82.9697 16.3121 83.1317 15.9919 83.1551 15.6476ZM87.8601 12.1442C86.4949 12.1442 85.6172 13.2259 85.6172 14.9333C85.6172 16.6448 86.4856 17.7265 87.8602 17.7264C88.5571 17.7521 89.2107 17.389 89.557 16.7837H89.6414V17.6374H90.6633V10.1245H89.5969V13.0922H89.5172C89.1952 12.4819 88.5495 12.1125 87.8601 12.1442ZM86.7188 14.9333C86.7188 16.0794 87.259 16.769 88.1625 16.769C89.0613 16.769 89.6168 16.0694 89.6168 14.938C89.6168 13.8118 89.0555 13.1023 88.1625 13.1023C87.2648 13.1023 86.7188 13.7966 86.7188 14.9333H86.7188ZM96.2735 12.5144C95.4468 13.0274 94.9824 13.9648 95.075 14.9333C94.9806 15.9029 95.4446 16.842 96.2721 17.3562C97.0995 17.8703 98.147 17.8703 98.9745 17.3562C99.8019 16.842 100.266 15.9029 100.171 14.9333C100.264 13.9648 99.7997 13.0274 98.973 12.5144C98.1463 12.0014 97.1002 12.0014 96.2735 12.5144ZM99.0738 14.9334C99.0738 13.7621 98.5476 13.0771 97.6242 13.0771C96.6972 13.0771 96.1758 13.7621 96.1758 14.9334C96.1758 16.1141 96.6973 16.7937 97.6242 16.7937C98.5476 16.7937 99.0738 16.1094 99.0738 14.9334ZM102.628 12.2337H101.602V17.6372H102.668V14.476C102.63 14.1164 102.75 13.7581 102.998 13.4949C103.246 13.2317 103.597 13.0899 103.958 13.1067C104.747 13.1067 105.124 13.5386 105.124 14.4069V17.6371H106.191V14.1391C106.269 13.6108 106.102 13.0756 105.739 12.6846C105.375 12.2936 104.853 12.0893 104.32 12.1294C103.632 12.0735 102.985 12.4601 102.708 13.0921H102.628V12.2337ZM112.217 10.8886V12.2585H113.388V13.1567H112.217V15.9353C112.217 16.5013 112.451 16.7491 112.982 16.7491C113.117 16.7487 113.253 16.7405 113.388 16.7245V17.6128C113.197 17.647 113.003 17.6653 112.808 17.6673C111.622 17.6673 111.15 17.2501 111.15 16.2083V13.1567H110.292V12.2585H111.15V10.8886H112.217ZM115.901 10.1245H114.844L114.844 17.6374H115.91V14.4815C115.877 14.1107 116.01 13.7443 116.272 13.4802C116.534 13.2161 116.9 13.0812 117.271 13.1116C118.024 13.1116 118.426 13.5487 118.426 14.4118V17.6374H119.494V14.1487C119.564 13.6231 119.397 13.0934 119.037 12.7038C118.677 12.3143 118.162 12.1055 117.633 12.1343C116.934 12.0776 116.276 12.4647 115.985 13.1022H115.901V10.1245ZM125.713 16.1784C125.414 17.1977 124.428 17.8562 123.372 17.7417C122.651 17.7607 121.959 17.462 121.478 16.925C120.997 16.3879 120.777 15.6666 120.875 14.9526C120.78 14.2366 120.999 13.5143 121.477 12.9726C121.955 12.431 122.645 12.1234 123.367 12.1296C124.87 12.1296 125.777 13.1568 125.777 14.8536V15.2257H121.962V15.2855C121.928 15.6864 122.065 16.083 122.339 16.3777C122.613 16.6725 122.999 16.8379 123.401 16.8335C123.923 16.8961 124.43 16.6373 124.686 16.1784L125.713 16.1784ZM124.691 14.437H121.962C121.957 14.0644 122.103 13.7056 122.366 13.4421C122.63 13.1785 122.989 13.0325 123.361 13.0372C123.729 13.0288 124.083 13.176 124.336 13.4426C124.589 13.7091 124.718 14.0703 124.691 14.437Z" fill="white"></path><path class="AppStoreCTASvg" fill-rule="evenodd" clip-rule="evenodd" d="M27.7809 10.4644C27.8971 11.9815 27.4173 13.4841 26.4435 14.6532C25.4987 15.8283 24.0671 16.5052 22.5594 16.4896C22.4635 15.0162 22.9572 13.5651 23.9318 12.456C24.9188 11.3318 26.2931 10.6207 27.7809 10.4644ZM32.5502 19.3784C30.8158 20.4447 29.7485 22.3251 29.7223 24.3609C29.7248 26.6641 31.1041 28.7427 33.2254 29.6399C32.8174 30.9652 32.2024 32.2177 31.4033 33.3509C30.33 34.9564 29.2047 36.5248 27.4187 36.5538C26.5692 36.5734 25.9959 36.3292 25.3984 36.0747C24.7752 35.8092 24.1257 35.5325 23.1095 35.5325C22.0317 35.5325 21.3532 35.8181 20.6988 36.0935C20.1333 36.3315 19.5858 36.5619 18.8142 36.5939C17.1133 36.6569 15.8134 34.8804 14.7011 33.2899C12.478 30.042 10.7469 24.1368 13.0676 20.1187C14.1575 18.1603 16.1951 16.9176 18.4351 16.8453C19.3998 16.8254 20.3255 17.1972 21.1371 17.5232C21.7578 17.7725 22.3117 17.995 22.7653 17.995C23.1641 17.995 23.7025 17.7813 24.3301 17.5322C25.3186 17.1399 26.5282 16.6599 27.7608 16.7892C29.6761 16.8492 31.451 17.8087 32.5502 19.3784Z" fill="white"></path></svg>